#Comment line ignore any data following # character 
#Hierarchical Translation and Rotation (.htr) file 
[Header]	
#Header keywords are followed by a single value 
FileType HTR		#Single word string
DataType HTRS		#Translation followed by rotation and scale data
FileVersion 1		#integer
NumSegments 84		#integer
NumFrames 2		#integer
DataFrameRate 30		#integer, data frame rate in this file
EulerRotationOrder ZYX
CalibrationUnits mm
RotationUnits Degrees
GlobalAxisofGravity Y
BoneLengthAxis Y
ScaleFactor 1.00
[SegmentNames&Hierarchy]
#CHILD	PARENT
MASTER GLOBAL
root MASTER
chest root
L_mid_tent01 root
R_mid_tent01 root
spine01 root
Bip01_Neck chest
L_humerus chest
R_humerus chest
weapon_bone chest
Bip01_Head Bip01_Neck
eye_left_bone Bip01_Head
eye_right_bone Bip01_Head
L_forearm L_humerus
L_front_hand L_forearm
L_weapon_bone L_forearm
L_front_hand01_01 L_front_hand
L_front_hand02_01 L_front_hand
L_front_hand03_01 L_front_hand
L_front_hand01_02 L_front_hand01_01
L_front_hand02_02 L_front_hand02_01
L_front_hand03_02 L_front_hand03_01
R_forearm R_humerus
R_front_hand R_forearm
R_weapon_bone R_forearm
R_front_hand01_01 R_front_hand
R_front_hand02_01 R_front_hand
R_front_hand03_01 R_front_hand
R_front_hand01_02 R_front_hand01_01
R_front_hand02_02 R_front_hand02_01
R_front_hand03_02 R_front_hand03_01
null_rope01_connect L_mid_tent01
Rope1_Seg01 null_rope01_connect
Rope1_Seg02 Rope1_Seg01
Rope1_Seg03 Rope1_Seg02
Rope1_Seg04 Rope1_Seg03
Rope1_Seg05 Rope1_Seg04
Rope1_Seg06 Rope1_Seg05
Rope1_Seg07 Rope1_Seg06
Rope1_Seg09 Rope1_Seg07
L_mid_hand01 Rope1_Seg09
L_mid_hand02 Rope1_Seg09
L_mid_hand03 Rope1_Seg09
null_rope02_connect R_mid_tent01
Rope2_Seg01 null_rope02_connect
Rope2_Seg02 Rope2_Seg01
Rope2_Seg03 Rope2_Seg02
Rope2_Seg04 Rope2_Seg03
Rope2_Seg05 Rope2_Seg04
Rope2_Seg06 Rope2_Seg05
Rope2_Seg07 Rope2_Seg06
Rope2_Seg09 Rope2_Seg07
R_mid_hand01 Rope2_Seg09
R_mid_hand02 Rope2_Seg09
R_mid_hand03 Rope2_Seg09
spine02 spine01
spine03 spine02
pelvis spine03
null_rope03_connect pelvis
null_rope04_connect pelvis
Rope3_Seg01 null_rope03_connect
Rope3_Seg02 Rope3_Seg01
Rope3_Seg03 Rope3_Seg02
Rope3_Seg04 Rope3_Seg03
Rope3_Seg05 Rope3_Seg04
Rope3_Seg06 Rope3_Seg05
Rope3_Seg07 Rope3_Seg06
Rope3_Seg08 Rope3_Seg07
Rope3_Seg09 Rope3_Seg08
R_rear_hand01 Rope3_Seg09
R_rear_hand02 Rope3_Seg09
R_rear_hand03 Rope3_Seg09
Rope4_Seg01 null_rope04_connect
Rope4_Seg02 Rope4_Seg01
Rope4_Seg03 Rope4_Seg02
Rope4_Seg04 Rope4_Seg03
Rope4_Seg05 Rope4_Seg04
Rope4_Seg06 Rope4_Seg05
Rope4_Seg07 Rope4_Seg06
Rope4_Seg08 Rope4_Seg07
Rope4_Seg09 Rope4_Seg08
L_rear_hand01 Rope4_Seg09
L_rear_hand02 Rope4_Seg09
L_rear_hand03 Rope4_Seg09
[BasePosition]
#SegmentName Tx, Ty, Tz, Rx, Ry, Rz, BoneLength
MASTER 0.000000 0.000000 0.000000 -90.000000 0.000000 0.000000 10.000000 
root 0.000000 0.000000 0.000000 0.000000 0.000000 0.000000 10.000000 
chest 0.000000 0.000000 0.000000 0.000000 0.000000 0.000000 10.000000 
L_mid_tent01 0.000000 0.000000 0.000000 0.000000 0.000000 0.000000 10.000000 
R_mid_tent01 0.000000 0.000000 0.000000 0.000000 0.000000 0.000000 10.000000 
spine01 0.000000 0.000000 0.000000 0.000000 0.000000 0.000000 10.000000 
Bip01_Neck 0.000000 0.000000 0.000000 0.000000 0.000000 0.000000 10.000000 
L_humerus 0.000000 0.000000 0.000000 0.000000 0.000000 0.000000 10.000000 
R_humerus 0.000000 0.000000 0.000000 0.000000 0.000000 0.000000 10.000000 
weapon_bone 0.000000 0.000000 0.000000 0.000000 0.000000 0.000000 10.000000 
Bip01_Head 0.000000 0.000000 0.000000 0.000000 0.000000 0.000000 10.000000 
eye_left_bone 0.000000 0.000000 0.000000 0.000000 0.000000 0.000000 10.000000 
eye_right_bone 0.000000 0.000000 0.000000 0.000000 0.000000 0.000000 10.000000 
L_forearm 0.000000 0.000000 0.000000 0.000000 0.000000 0.000000 10.000000 
L_front_hand 0.000000 0.000000 0.000000 0.000000 0.000000 0.000000 10.000000 
L_weapon_bone 0.000000 0.000000 0.000000 0.000000 0.000000 0.000000 10.000000 
L_front_hand01_01 0.000000 0.000000 0.000000 0.000000 0.000000 0.000000 10.000000 
L_front_hand02_01 0.000000 0.000000 0.000000 0.000000 0.000000 0.000000 10.000000 
L_front_hand03_01 0.000000 0.000000 0.000000 0.000000 0.000000 0.000000 10.000000 
L_front_hand01_02 0.000000 0.000000 0.000000 0.000000 0.000000 0.000000 10.000000 
L_front_hand02_02 0.000000 0.000000 0.000000 0.000000 0.000000 0.000000 10.000000 
L_front_hand03_02 0.000000 0.000000 0.000000 0.000000 0.000000 0.000000 10.000000 
R_forearm 0.000000 0.000000 0.000000 0.000000 0.000000 0.000000 10.000000 
R_front_hand 0.000000 0.000000 0.000000 0.000000 0.000000 0.000000 10.000000 
R_weapon_bone 0.000000 0.000000 0.000000 0.000000 0.000000 0.000000 10.000000 
R_front_hand01_01 0.000000 0.000000 0.000000 0.000000 0.000000 0.000000 10.000000 
R_front_hand02_01 0.000000 0.000000 0.000000 0.000000 0.000000 0.000000 10.000000 
R_front_hand03_01 0.000000 0.000000 0.000000 0.000000 0.000000 0.000000 10.000000 
R_front_hand01_02 0.000000 0.000000 0.000000 0.000000 0.000000 0.000000 10.000000 
R_front_hand02_02 0.000000 0.000000 0.000000 0.000000 0.000000 0.000000 10.000000 
R_front_hand03_02 0.000000 0.000000 0.000000 0.000000 0.000000 0.000000 10.000000 
null_rope01_connect 0.000000 0.000000 0.000000 0.000000 0.000000 0.000000 10.000000 
Rope1_Seg01 0.000000 0.000000 0.000000 0.000000 0.000000 0.000000 10.000000 
Rope1_Seg02 0.000000 0.000000 0.000000 0.000000 0.000000 0.000000 10.000000 
Rope1_Seg03 0.000000 0.000000 0.000000 0.000000 0.000000 0.000000 10.000000 
Rope1_Seg04 0.000000 0.000000 0.000000 0.000000 0.000000 0.000000 10.000000 
Rope1_Seg05 0.000000 0.000000 0.000000 0.000000 0.000000 0.000000 10.000000 
Rope1_Seg06 0.000000 0.000000 0.000000 0.000000 0.000000 0.000000 10.000000 
Rope1_Seg07 0.000000 0.000000 0.000000 0.000000 0.000000 0.000000 10.000000 
Rope1_Seg09 0.000000 0.000000 0.000000 0.000000 0.000000 0.000000 10.000000 
L_mid_hand01 0.000000 0.000000 0.000000 0.000000 0.000000 0.000000 10.000000 
L_mid_hand02 0.000000 0.000000 0.000000 0.000000 0.000000 0.000000 10.000000 
L_mid_hand03 0.000000 0.000000 0.000000 0.000000 0.000000 0.000000 10.000000 
null_rope02_connect 0.000000 0.000000 0.000000 0.000000 0.000000 0.000000 10.000000 
Rope2_Seg01 0.000000 0.000000 0.000000 0.000000 0.000000 0.000000 10.000000 
Rope2_Seg02 0.000000 0.000000 0.000000 0.000000 0.000000 0.000000 10.000000 
Rope2_Seg03 0.000000 0.000000 0.000000 0.000000 0.000000 0.000000 10.000000 
Rope2_Seg04 0.000000 0.000000 0.000000 0.000000 0.000000 0.000000 10.000000 
Rope2_Seg05 0.000000 0.000000 0.000000 0.000000 0.000000 0.000000 10.000000 
Rope2_Seg06 0.000000 0.000000 0.000000 0.000000 0.000000 0.000000 10.000000 
Rope2_Seg07 0.000000 0.000000 0.000000 0.000000 0.000000 0.000000 10.000000 
Rope2_Seg09 0.000000 0.000000 0.000000 0.000000 0.000000 0.000000 10.000000 
R_mid_hand01 0.000000 0.000000 0.000000 0.000000 0.000000 0.000000 10.000000 
R_mid_hand02 0.000000 0.000000 0.000000 0.000000 0.000000 0.000000 10.000000 
R_mid_hand03 0.000000 0.000000 0.000000 0.000000 0.000000 0.000000 10.000000 
spine02 0.000000 0.000000 0.000000 0.000000 0.000000 0.000000 10.000000 
spine03 0.000000 0.000000 0.000000 0.000000 0.000000 0.000000 10.000000 
pelvis 0.000000 0.000000 0.000000 0.000000 0.000000 0.000000 10.000000 
null_rope03_connect 0.000000 0.000000 0.000000 0.000000 0.000000 0.000000 10.000000 
null_rope04_connect 0.000000 0.000000 0.000000 0.000000 0.000000 0.000000 10.000000 
Rope3_Seg01 0.000000 0.000000 0.000000 0.000000 0.000000 0.000000 10.000000 
Rope3_Seg02 0.000000 0.000000 0.000000 0.000000 0.000000 0.000000 10.000000 
Rope3_Seg03 0.000000 0.000000 0.000000 0.000000 0.000000 0.000000 10.000000 
Rope3_Seg04 0.000000 0.000000 0.000000 0.000000 0.000000 0.000000 10.000000 
Rope3_Seg05 0.000000 0.000000 0.000000 0.000000 0.000000 0.000000 10.000000 
Rope3_Seg06 0.000000 0.000000 0.000000 0.000000 0.000000 0.000000 10.000000 
Rope3_Seg07 0.000000 0.000000 0.000000 0.000000 0.000000 0.000000 10.000000 
Rope3_Seg08 0.000000 0.000000 0.000000 0.000000 0.000000 0.000000 10.000000 
Rope3_Seg09 0.000000 0.000000 0.000000 0.000000 0.000000 0.000000 10.000000 
R_rear_hand01 0.000000 0.000000 0.000000 0.000000 0.000000 0.000000 10.000000 
R_rear_hand02 0.000000 0.000000 0.000000 0.000000 0.000000 0.000000 10.000000 
R_rear_hand03 0.000000 0.000000 0.000000 0.000000 0.000000 0.000000 10.000000 
Rope4_Seg01 0.000000 0.000000 0.000000 0.000000 0.000000 0.000000 10.000000 
Rope4_Seg02 0.000000 0.000000 0.000000 0.000000 0.000000 0.000000 10.000000 
Rope4_Seg03 0.000000 0.000000 0.000000 0.000000 0.000000 0.000000 10.000000 
Rope4_Seg04 0.000000 0.000000 0.000000 0.000000 0.000000 0.000000 10.000000 
Rope4_Seg05 0.000000 0.000000 0.000000 0.000000 0.000000 0.000000 10.000000 
Rope4_Seg06 0.000000 0.000000 0.000000 0.000000 0.000000 0.000000 10.000000 
Rope4_Seg07 0.000000 0.000000 0.000000 0.000000 0.000000 0.000000 10.000000 
Rope4_Seg08 0.000000 0.000000 0.000000 0.000000 0.000000 0.000000 10.000000 
Rope4_Seg09 0.000000 0.000000 0.000000 0.000000 0.000000 0.000000 10.000000 
L_rear_hand01 0.000000 0.000000 0.000000 0.000000 0.000000 0.000000 10.000000 
L_rear_hand02 0.000000 0.000000 0.000000 0.000000 0.000000 0.000000 10.000000 
L_rear_hand03 0.000000 0.000000 0.000000 0.000000 0.000000 0.000000 10.000000 
#Beginning of Data. Separated by tabs
#Fr	Tx	Ty	Tz	Rx	Ry	Rz	SF
[MASTER]
8 -135.301682 502.325592 1148.264771 0.001660 0.001660 0.001660 1260.614746
9 -153.523376 665.061829 1381.330200 0.001660 0.001660 0.001660 1540.762817
[root]
8 100.027908 13.719959 1224.285767 -83.842270 15.376088 -98.657364 1228.441895
9 96.802750 23.933424 1158.545410 -85.073166 5.443505 -97.515831 1162.828857
[chest]
8 -84.512650 -34.090519 0.000000 4.330868 6.469402 157.585602 91.129311
9 -84.512650 -34.090519 0.000000 5.200717 7.565214 156.012009 91.129311
[L_mid_tent01]
8 27.299126 22.179087 -249.918701 -2.000524 21.339958 67.299896 252.381683
9 27.299128 22.179087 -249.918701 -1.272622 20.895391 71.891884 252.381683
[R_mid_tent01]
8 23.228794 24.509907 226.238495 171.065826 -24.109659 63.905060 228.744751
9 23.228794 24.509907 226.238495 170.928925 -22.765385 65.888168 228.744751
[spine01]
8 -0.361383 -0.195265 0.000000 -0.000001 -0.000007 22.052340 0.410763
9 -0.361383 -0.195265 0.000000 -0.000001 -0.000007 22.052340 0.410763
[Bip01_Neck]
8 165.484543 71.581718 0.000119 176.643677 -1.657967 43.431911 180.302734
9 165.484543 71.581718 0.000119 176.643677 -1.657967 43.431911 180.302734
[L_humerus]
8 -13.983130 -135.272980 -120.471481 12.467259 76.897545 102.556953 181.680161
9 -13.983130 -135.272980 -120.471481 21.212147 79.328041 111.380493 181.680161
[R_humerus]
8 -13.983309 -135.273102 125.287651 177.469757 -82.246933 -82.352661 184.909012
9 -13.983309 -135.273102 125.287651 -175.095779 -76.784248 -89.840973 184.909012
[weapon_bone]
8 235.964890 -300.705902 0.000000 0.000000 -89.951546 -128.212341 382.234833
9 235.964890 -300.705902 0.000000 0.000000 -89.951546 -128.212341 382.234833
[Bip01_Head]
8 213.673691 185.076294 20.027359 4.962490 2.797845 -43.898739 283.391541
9 213.637695 185.176849 18.730673 4.962490 2.797846 -43.898743 283.341431
[eye_left_bone]
8 -24.626970 125.451866 -64.772606 0.000000 -90.000000 -99.840431 143.318359
9 -24.626970 125.451866 -64.772606 0.000000 -90.000000 -99.840431 143.318359
[eye_right_bone]
8 -24.626970 125.451866 64.327362 0.000000 -89.965736 80.156380 143.117676
9 -24.626970 125.451866 64.327362 0.000000 -89.965736 80.156380 143.117676
[L_forearm]
8 322.776093 0.000000 -0.000119 0.000401 -0.002313 -109.676193 322.776093
9 322.776093 0.000000 -0.000119 0.000402 -0.002313 -109.731644 322.776093
[L_front_hand]
8 241.149185 -0.042021 -3.300071 -169.847839 -1.837354 -27.421877 241.171753
9 241.149185 -0.042021 -3.300071 -170.986755 -1.837834 -27.421240 241.171753
[L_weapon_bone]
8 156.183838 0.000000 0.000000 0.000014 0.000007 0.000001 156.183838
9 156.183838 0.000000 0.000000 0.000014 0.000007 0.000001 156.183838
[L_front_hand01_01]
8 86.095154 20.947098 -0.655860 -0.304872 -0.514302 68.276070 88.609184
9 86.095154 20.947098 -0.655860 -0.289102 -0.524108 66.611084 88.609184
[L_front_hand02_01]
8 86.935165 -11.437475 24.513514 144.546585 -56.255680 -49.772907 91.046425
9 86.935165 -11.437475 24.513514 142.580521 -55.269005 -47.395390 91.046425
[L_front_hand03_01]
8 86.637497 -14.123976 -20.424902 -144.732666 54.475910 -51.681892 90.126129
9 86.637497 -14.123976 -20.424902 -142.879868 53.494274 -49.391991 90.126129
[L_front_hand01_02]
8 71.020905 -0.000179 0.000030 0.000320 -0.002325 -105.665108 71.020905
9 71.020905 -0.000179 0.000030 0.000319 -0.002326 -105.601768 71.020905
[L_front_hand02_02]
8 71.020927 -0.000119 0.000060 0.000320 -0.002325 -105.665108 71.020927
9 71.020927 -0.000119 0.000060 0.000319 -0.002326 -105.601768 71.020927
[L_front_hand03_02]
8 71.020905 -0.000060 0.000060 0.000320 -0.002325 -105.665108 71.020905
9 71.020905 -0.000060 0.000060 0.000319 -0.002326 -105.601768 71.020905
[R_forearm]
8 322.776428 -0.000060 0.000030 0.201915 0.065736 -108.390884 322.776428
9 322.776428 -0.000060 0.000030 0.201876 0.065857 -108.459518 322.776428
[R_front_hand]
8 238.847015 -0.006795 2.210259 -11.454714 -10.646343 -26.312872 238.857239
9 238.847015 -0.006795 2.210259 -10.314866 -10.646361 -26.311705 238.857239
[R_weapon_bone]
8 155.664093 0.002503 -0.000030 0.003487 0.001180 -90.988930 155.664078
9 155.664093 0.002503 -0.000030 0.003487 0.001180 -90.988930 155.664078
[R_front_hand01_01]
8 87.624611 14.231146 22.918642 -144.302139 -56.138653 49.586014 91.683487
9 87.624611 14.231146 22.918642 -141.947067 -54.924732 46.726727 91.683487
[R_front_hand02_01]
8 89.356956 14.367283 -19.491137 144.866989 54.526855 52.081070 92.579636
9 89.356956 14.367283 -19.491137 142.634140 53.329136 49.315861 92.579636
[R_front_hand03_01]
8 87.286232 -22.307278 -0.143439 0.104166 -0.441299 -68.306496 90.091743
9 87.286232 -22.307278 -0.143439 0.092230 -0.445770 -66.286453 90.091743
[R_front_hand01_02]
8 71.020905 0.000060 0.000119 0.002329 -0.000293 104.364960 71.020905
9 71.020905 0.000060 0.000119 0.002329 -0.000291 104.244080 71.020905
[R_front_hand02_02]
8 71.020844 -0.000030 -0.000119 0.002329 -0.000293 104.364960 71.020836
9 71.020844 -0.000030 -0.000119 0.002329 -0.000291 104.244080 71.020836
[R_front_hand03_02]
8 71.020905 0.000000 0.000030 0.002329 -0.000293 104.364960 71.020905
9 71.020905 0.000000 0.000030 0.002329 -0.000291 104.244080 71.020905
[null_rope01_connect]
8 328.732483 0.000000 -0.000238 -145.550629 -71.107750 150.970917 328.732483
9 328.732483 0.000000 -0.000238 -145.122742 -70.669304 156.284210 328.732483
[Rope1_Seg01]
8 0.000067 -0.000106 0.000000 -16.646759 2.895874 159.035141 0.000126
9 0.000066 -0.000116 0.000000 -17.179462 5.171608 152.205933 0.000133
[Rope1_Seg02]
8 139.999863 -0.000179 0.000000 -1.255489 10.766903 -13.490738 139.999863
9 139.999863 -0.000179 0.000000 -0.861432 9.295216 -10.039953 139.999863
[Rope1_Seg03]
8 139.999924 0.000060 -0.000060 0.220495 4.936042 -8.843801 139.999924
9 139.999924 0.000060 -0.000060 -0.140057 5.490373 -7.085065 139.999924
[Rope1_Seg04]
8 139.999924 -0.000060 -0.000119 -1.774677 11.614110 -11.822875 139.999924
9 139.999924 -0.000060 -0.000119 -0.106135 4.647282 -5.583224 139.999924
[Rope1_Seg05]
8 139.999832 0.000119 -0.000060 -34.320084 31.607954 -29.808096 139.999832
9 139.999832 0.000119 -0.000060 -7.590446 19.314661 -16.276121 139.999832
[Rope1_Seg06]
8 139.999954 0.000119 -0.000060 -115.439392 22.326708 -5.882273 139.999954
9 139.999954 0.000119 -0.000060 -43.878933 23.589077 -16.570808 139.999954
[Rope1_Seg07]
8 139.999985 0.000060 0.000000 -12.728398 -1.714694 9.709763 139.999985
9 139.999985 0.000060 0.000000 -72.713577 12.804865 1.488138 139.999985
[Rope1_Seg09]
8 121.602913 0.000119 -0.000089 -89.793175 -1.359789 0.847147 121.602913
9 121.602913 0.000119 -0.000089 -89.793175 -1.359789 0.847147 121.602913
[L_mid_hand01]
8 103.859421 1.038730 8.195221 111.216118 -46.770245 -16.325294 104.187431
9 103.859421 1.038730 8.195221 110.016693 -43.583382 -14.630747 104.187431
[L_mid_hand02]
8 105.572853 -4.139662 -10.864139 -150.384232 34.904892 -44.592522 106.211075
9 105.572853 -4.139662 -10.864139 -148.402451 33.171711 -41.059570 106.211075
[L_mid_hand03]
8 104.641464 17.579376 -3.913581 -12.781255 13.855397 50.452671 106.179977
9 104.641464 17.579376 -3.913581 -13.575854 13.082141 47.042400 106.179977
[null_rope02_connect]
8 328.732849 0.000179 -0.000119 -171.340805 62.320702 -7.124034 328.732849
9 328.732849 0.000179 -0.000119 -159.315689 65.471024 -2.131927 328.732849
[Rope2_Seg01]
8 0.000095 0.000173 0.000000 77.830757 21.375650 6.454792 0.000198
9 0.000095 0.000182 0.000000 82.255066 7.593082 1.377602 0.000205
[Rope2_Seg02]
8 139.999741 -0.000060 -0.000119 -3.854540 11.201922 -13.441887 139.999756
9 139.999741 -0.000060 -0.000119 -14.436351 1.147745 -27.160084 139.999756
[Rope2_Seg03]
8 140.000107 0.000030 0.000000 -2.819139 10.104916 -27.389114 140.000107
9 140.000107 0.000030 0.000000 -8.082858 3.494056 -32.009518 140.000107
[Rope2_Seg04]
8 139.999802 0.000000 -0.000060 -7.334119 33.653790 -1.654843 139.999802
9 139.999802 0.000000 -0.000060 -0.872871 15.570253 -6.025626 139.999802
[Rope2_Seg05]
8 139.999985 -0.000060 0.000119 -39.419613 37.475513 24.420872 139.999985
9 139.999985 -0.000060 0.000119 -19.191265 52.305157 11.788833 139.999985
[Rope2_Seg06]
8 139.999893 -0.000030 -0.000119 -13.937500 4.177594 10.992351 139.999893
9 139.999893 -0.000030 -0.000119 -39.242638 25.625099 14.730570 139.999893
[Rope2_Seg07]
8 139.999893 0.000060 -0.000060 -5.809272 0.620595 5.355111 139.999893
9 139.999893 0.000060 -0.000060 -9.785874 1.951983 5.536117 139.999893
[Rope2_Seg09]
8 121.338966 0.000089 -0.000060 33.793236 -1.359788 -0.847141 121.338966
9 121.338966 0.000089 -0.000060 33.793236 -1.359788 -0.847141 121.338966
[R_mid_hand01]
8 104.680779 11.144459 -10.335981 -27.387493 40.402237 54.098232 105.778534
9 104.680779 11.144459 -10.335981 -29.481638 39.038574 50.818577 105.778534
[R_mid_hand02]
8 104.070427 2.443552 8.231699 62.946606 -56.952805 23.709984 104.424065
9 104.070427 2.443552 8.231699 64.792824 -54.379646 21.475639 104.424065
[R_mid_hand03]
8 106.028137 -11.221827 -5.996406 -173.630432 14.503003 -63.260223 106.788818
9 106.028137 -11.221827 -5.996406 -172.901596 14.168235 -60.324333 106.788818
[spine02]
8 129.756927 0.001550 0.000119 0.475226 -4.031941 -14.578948 129.756927
9 129.756927 0.001550 0.000119 0.488749 -4.030255 -14.754035 129.756927
[spine03]
8 78.614044 0.081653 -4.899004 1.963992 3.798851 17.515518 78.766579
9 78.614044 0.081655 -4.899003 1.970106 3.795116 17.609140 78.766579
[pelvis]
8 169.435242 0.051022 0.000000 -0.068670 -0.178384 16.198400 169.435257
9 169.435242 0.051022 0.000000 -0.068977 -0.178266 16.395771 169.435257
[null_rope03_connect]
8 -1.257226 -2.466202 137.391083 -56.378796 -77.118233 90.360023 137.418976
9 -1.257226 -2.466202 137.391083 -53.166515 -79.721344 96.803818 137.418976
[null_rope04_connect]
8 -1.259640 -2.480268 -137.844437 -56.378796 -77.118233 90.360023 137.872513
9 -1.259640 -2.480268 -137.844437 -53.166515 -79.721344 96.803818 137.872513
[Rope3_Seg01]
8 0.000000 0.000000 0.000000 19.812195 -12.891213 -91.081825 0.000000
9 0.000000 0.000000 0.000000 22.465446 -27.983776 -86.165977 0.000000
[Rope3_Seg02]
8 139.999924 -0.000119 0.000060 9.693444 41.944057 21.164873 139.999924
9 139.999924 -0.000119 0.000060 12.721932 43.296680 24.394257 139.999924
[Rope3_Seg03]
8 139.999924 -0.000119 0.000119 57.732094 49.422997 30.857836 139.999924
9 139.999924 -0.000119 0.000119 77.789474 53.684521 35.813095 139.999924
[Rope3_Seg04]
8 139.999924 0.000119 0.000000 11.883150 5.625531 -6.216792 139.999924
9 139.999924 0.000119 0.000000 12.129901 5.081617 -6.856062 139.999924
[Rope3_Seg05]
8 139.999924 -0.000238 0.000060 -3.030440 -7.574466 -5.854509 139.999924
9 139.999924 -0.000238 0.000060 -2.520571 -5.355302 -4.016492 139.999924
[Rope3_Seg06]
8 139.999893 -0.000119 -0.000060 0.960395 -3.293082 -5.772867 139.999893
9 139.999893 -0.000119 -0.000060 0.390240 -3.704137 -5.272845 139.999893
[Rope3_Seg07]
8 139.999771 0.000060 -0.000119 1.298028 -2.018965 -4.731867 139.999771
9 139.999771 0.000060 -0.000119 1.468565 -2.151430 -5.073450 139.999771
[Rope3_Seg08]
8 139.999985 -0.000060 0.000000 0.901453 -1.228696 -2.708838 139.999985
9 139.999985 -0.000060 0.000000 1.034657 -1.497347 -3.316457 139.999985
[Rope3_Seg09]
8 90.185997 -0.000179 -0.000060 89.793228 -1.359877 -0.847183 90.185997
9 90.185997 -0.000179 -0.000060 89.793228 -1.359877 -0.847183 90.185997
[R_rear_hand01]
8 103.366196 -6.073594 -10.757982 -170.781250 22.977589 -56.830040 104.101845
9 103.366196 -6.073594 -10.757982 -169.405167 22.402496 -53.260654 104.101845
[R_rear_hand02]
8 100.509819 12.039542 -7.992327 -23.185047 31.960989 54.046936 101.543350
9 100.509819 12.039542 -7.992327 -25.038765 30.595232 50.476662 101.543350
[R_rear_hand03]
8 101.539970 5.215704 5.435467 79.639084 -56.567936 12.539787 101.819031
9 101.539970 5.215704 5.435467 80.458870 -53.275658 11.535563 101.819031
[Rope4_Seg01]
8 0.000010 0.000038 -0.000114 -95.436821 -0.282698 -135.975266 0.000121
9 0.000010 0.000038 -0.000114 -87.793030 -15.629319 -135.477890 0.000121
[Rope4_Seg02]
8 139.999985 0.000060 0.000119 -1.722716 5.869752 5.725389 139.999985
9 139.999985 0.000060 0.000119 -0.314060 7.230627 4.576858 139.999985
[Rope4_Seg03]
8 139.999924 0.000000 -0.000238 -4.598086 8.379733 9.129753 139.999924
9 139.999924 0.000000 -0.000238 -0.995543 11.088683 7.259398 139.999924
[Rope4_Seg04]
8 139.999985 0.000000 0.000119 -18.377867 6.642331 15.067645 139.999985
9 139.999985 0.000000 0.000119 -9.561874 12.264341 12.575328 139.999985
[Rope4_Seg05]
8 139.999802 -0.000060 -0.000119 -65.553116 15.671615 22.493904 139.999802
9 139.999802 -0.000060 -0.000119 -54.868298 19.015482 15.517847 139.999802
[Rope4_Seg06]
8 139.999924 0.000000 0.000060 -55.510712 -5.820727 16.664059 139.999924
9 139.999924 0.000000 0.000060 -108.453552 4.113430 20.171408 139.999924
[Rope4_Seg07]
8 139.999802 0.000000 0.000000 -7.931991 -7.397974 1.111422 139.999802
9 139.999802 0.000000 0.000000 -3.952239 -9.331874 -1.974627 139.999802
[Rope4_Seg08]
8 139.999924 0.000000 0.000119 -4.221868 -3.917195 0.042110 139.999924
9 139.999924 0.000000 0.000119 -2.301160 -4.570404 -1.465993 139.999924
[Rope4_Seg09]
8 90.185791 0.000060 0.000060 -135.617828 2.228885 0.850567 90.185791
9 90.185791 0.000060 0.000060 -135.617828 2.228885 0.850567 90.185791
[L_rear_hand01]
8 101.696655 -8.392275 -7.654577 -31.684452 -23.583008 144.025742 102.329041
9 101.696655 -8.392275 -7.654577 -31.553307 -23.761135 143.711090 102.329041
[L_rear_hand02]
8 102.726799 -1.568258 5.773216 82.701553 38.753956 171.553619 102.900848
9 102.726799 -1.568258 5.773216 82.664513 39.085827 171.495636 102.900848
[L_rear_hand03]
8 104.552910 9.721220 -10.420293 -163.975403 -19.004421 -142.009338 105.519653
9 104.552910 9.721220 -10.420293 -164.089569 -19.094524 -141.662735 105.519653
